<svg width="137" height="137" viewBox="0 0 137 137" fill="none" xmlns="http://www.w3.org/2000/svg">
<g id="sst" clip-path="url(#clip0_177_1256)">
<g id="Group">
<path id="Vector" fill-rule="evenodd" clip-rule="evenodd" d="M6.82971 113.592C6.81123 113.183 6.66766 112.854 6.40184 112.601C6.13389 112.349 5.79416 112.222 5.37979 112.222C4.85598 112.222 4.45156 112.35 4.16371 112.601C3.87586 112.853 3.73158 113.209 3.73158 113.667C3.73158 113.971 3.81545 114.221 3.9839 114.42C4.14737 114.618 4.39968 114.768 4.7387 114.874L6.14171 115.303C6.79346 115.506 7.26326 115.791 7.55254 116.155C7.83754 116.522 7.9804 117.018 7.9804 117.644C7.9804 118.518 7.74657 119.205 7.27819 119.701C6.80839 120.198 6.16161 120.447 5.33644 120.447C4.52477 120.447 3.89647 120.217 3.45226 119.755C3.00733 119.295 2.7536 118.607 2.6875 117.69H3.64416C3.66122 118.281 3.80763 118.721 4.08411 119.008C4.36059 119.295 4.7778 119.437 5.33715 119.437C5.87589 119.437 6.29381 119.29 6.58877 118.996C6.8816 118.7 7.03014 118.285 7.03014 117.746C7.03014 117.434 6.93916 117.172 6.75721 116.964C6.57882 116.753 6.30447 116.592 5.93204 116.477L4.53046 116.049C3.90571 115.858 3.45439 115.584 3.17791 115.221C2.90357 114.863 2.76497 114.377 2.76497 113.757C2.76497 112.953 2.99738 112.324 3.46079 111.87C3.92561 111.416 4.56386 111.19 5.38051 111.19C6.12679 111.19 6.70604 111.394 7.1204 111.805C7.53264 112.214 7.75865 112.811 7.79703 113.593L6.82971 113.592ZM8.7942 114.066H9.6869V120.268H8.79491L8.7942 114.066ZM8.75014 111.366H9.72741V112.533H8.75014V111.366ZM10.6926 111.366H11.5853V120.268H10.6926V111.366ZM12.6315 114.066H13.5235V120.268H12.6308L12.6315 114.066ZM12.5874 111.366H13.564V112.533H12.5874V111.366ZM18.6643 118.161C18.6188 118.919 18.4269 119.487 18.0914 119.87C17.756 120.254 17.2798 120.446 16.6614 120.446C15.8682 120.446 15.2804 120.174 14.8966 119.632C14.5143 119.089 14.3202 118.256 14.3174 117.134C14.3174 116.119 14.5263 115.327 14.9421 114.752C15.3579 114.175 15.9308 113.89 16.6614 113.89C17.2556 113.89 17.7275 114.081 18.0744 114.465C18.4212 114.846 18.6032 115.378 18.6202 116.054H17.7076C17.697 115.646 17.5911 115.327 17.3892 115.093C17.1874 114.863 16.913 114.747 16.5676 114.747C16.1198 114.747 15.7915 114.939 15.5825 115.324C15.3743 115.71 15.2691 116.315 15.2691 117.14C15.2691 117.998 15.3721 118.622 15.5761 119.007C15.7794 119.394 16.1099 119.588 16.5683 119.588C16.9521 119.588 17.2421 119.475 17.434 119.244C17.6259 119.015 17.7375 118.654 17.7673 118.162L18.6643 118.161ZM21.5535 120.446C20.8228 120.446 20.25 120.153 19.8342 119.565C19.4184 118.979 19.2094 118.167 19.2094 117.134C19.2094 116.119 19.4184 115.327 19.8342 114.752C20.25 114.175 20.8228 113.89 21.5535 113.89C22.2855 113.89 22.8605 114.175 23.2749 114.752C23.6892 115.327 23.8961 116.119 23.8961 117.134C23.8961 118.167 23.6885 118.979 23.2749 119.565C22.8605 120.153 22.2855 120.446 21.5535 120.446ZM21.5535 119.588C21.9927 119.588 22.3367 119.376 22.5791 118.949C22.8228 118.521 22.9444 117.917 22.9444 117.14C22.9444 116.378 22.8228 115.791 22.5791 115.373C22.3367 114.956 21.9927 114.748 21.5535 114.748C21.1121 114.748 20.7688 114.956 20.5264 115.373C20.2819 115.791 20.1604 116.378 20.1604 117.14C20.1604 117.917 20.2819 118.521 20.5264 118.949C20.7681 119.376 21.1121 119.588 21.5535 119.588ZM24.6914 114.066H25.5201V114.924C25.5656 114.835 25.6182 114.753 25.6729 114.678C26.0404 114.153 26.5372 113.89 27.1619 113.89C27.8002 113.89 28.2707 114.108 28.5685 114.541C28.8684 114.973 29.0184 115.65 29.0184 116.571V120.268H28.1264V116.59C28.1264 115.954 28.0326 115.494 27.845 115.208C27.658 114.921 27.3581 114.779 26.9473 114.779C26.469 114.779 26.1235 114.936 25.9082 115.248C25.6921 115.563 25.5848 116.067 25.5848 116.76V120.268H24.6914V114.066ZM36.236 113.592C36.2175 113.183 36.0739 112.854 35.8081 112.601C35.5402 112.349 35.2004 112.222 34.7861 112.222C34.2623 112.222 33.8578 112.35 33.57 112.601C33.2821 112.853 33.1372 113.209 33.1372 113.667C33.1372 113.971 33.221 114.221 33.3895 114.42C33.5529 114.618 33.8053 114.768 34.1443 114.874L35.5473 115.303C36.199 115.506 36.6688 115.791 36.9581 116.155C37.2431 116.522 37.386 117.018 37.386 117.644C37.386 118.518 37.1521 119.205 36.6838 119.701C36.214 120.198 35.5672 120.447 34.742 120.447C33.9303 120.447 33.302 120.217 32.8571 119.755C32.4129 119.295 32.1585 118.607 32.0924 117.69H33.0497C33.0661 118.281 33.2132 118.721 33.489 119.008C33.7655 119.295 34.1834 119.437 34.742 119.437C35.2808 119.437 35.6987 119.29 35.9929 118.996C36.2865 118.7 36.4343 118.285 36.4343 117.746C36.4343 117.434 36.3433 117.172 36.1614 116.964C35.983 116.753 35.7079 116.592 35.3362 116.477L33.9346 116.049C33.3099 115.858 32.8585 115.584 32.5828 115.221C32.3077 114.863 32.1698 114.377 32.1698 113.757C32.1698 112.953 32.4022 112.324 32.8657 111.87C33.3305 111.416 33.9687 111.19 34.7854 111.19C35.5317 111.19 36.1109 111.394 36.5253 111.805C36.9382 112.214 37.1635 112.811 37.2026 113.593L36.236 113.592ZM40.7513 120.357C40.4633 120.42 40.1691 120.45 39.8743 120.446C39.5374 120.446 39.2545 120.327 39.02 120.092C38.9059 119.98 38.8159 119.845 38.7557 119.697C38.6954 119.548 38.6661 119.389 38.6696 119.229V114.893H37.6625V114.066H38.6696V112.949L39.5623 112.475V114.066H40.7513V114.893H39.5623V118.964C39.5623 119.182 39.6042 119.341 39.6902 119.44C39.7762 119.539 39.912 119.588 40.0996 119.588C40.337 119.584 40.5545 119.556 40.7513 119.505V120.357ZM43.5254 120.446C42.7947 120.446 42.2219 120.153 41.8061 119.565C41.3903 118.979 41.1813 118.167 41.1813 117.134C41.1813 116.119 41.3896 115.327 41.8061 114.752C42.2219 114.175 42.7947 113.89 43.5254 113.89C44.2582 113.89 44.8324 114.175 45.2468 114.752C45.6612 115.327 45.8687 116.119 45.8687 117.134C45.8687 118.167 45.6612 118.979 45.2468 119.565C44.8324 120.153 44.2582 120.446 43.5254 120.446ZM43.5254 119.588C43.9653 119.588 44.3093 119.376 44.551 118.949C44.7955 118.521 44.9163 117.917 44.9163 117.14C44.9163 116.378 44.7955 115.791 44.551 115.373C44.3086 114.956 43.9646 114.748 43.5254 114.748C43.084 114.748 42.7407 114.956 42.4984 115.373C42.2546 115.791 42.133 116.378 42.133 117.14C42.133 117.917 42.2546 118.521 42.4984 118.949C42.7407 119.376 43.084 119.588 43.5254 119.588ZM46.6683 114.066H47.5603V114.698C47.9092 114.155 48.362 113.885 48.9178 113.89L49.1601 113.904V114.97L48.9782 114.956C48.48 114.956 48.1196 115.128 47.895 115.471C47.6719 115.814 47.5603 116.361 47.5603 117.114V120.268H46.6683V114.066ZM51.3215 120.446C50.7657 120.446 50.3293 120.273 50.0166 119.931C49.7017 119.588 49.5447 119.115 49.5447 118.509C49.5447 117.853 49.76 117.338 50.1914 116.966C50.6221 116.592 51.2149 116.408 51.9733 116.408H52.7821V115.885C52.7821 115.487 52.6925 115.199 52.5141 115.018C52.3372 114.838 52.0515 114.747 51.657 114.747C51.3876 114.747 51.1701 114.831 51.0052 114.998C50.8403 115.162 50.7494 115.393 50.7288 115.689H49.7913C49.8261 115.066 50.0017 114.609 50.3144 114.323C50.6257 114.035 51.0991 113.89 51.7309 113.89C52.313 113.89 52.7821 114.074 53.1382 114.44C53.4957 114.806 53.6741 115.285 53.6741 115.885V118.042C53.6741 118.63 53.6862 119.123 53.7075 119.517C53.7309 119.913 53.7651 120.163 53.807 120.268H52.9598C52.9228 120.216 52.8958 120.076 52.8759 119.853C52.8577 119.677 52.8463 119.5 52.8418 119.323C52.7814 119.457 52.7139 119.585 52.6378 119.706C52.3208 120.2 51.8816 120.446 51.3215 120.446ZM52.7842 117.253H51.9655C51.4587 117.253 51.0777 117.359 50.8268 117.568C50.5745 117.779 50.4494 118.096 50.4494 118.516C50.4494 118.857 50.5369 119.121 50.7153 119.308C50.8922 119.495 51.1445 119.588 51.4701 119.588C51.9079 119.588 52.2362 119.431 52.4516 119.115C52.6691 118.8 52.78 118.335 52.7835 117.721L52.7842 117.253ZM56.6407 121.904C57.1276 121.904 57.4723 121.752 57.6749 121.45C57.8767 121.146 57.9776 120.631 57.9776 119.903V119.076L57.8298 119.341C57.468 119.9 56.9925 120.181 56.4033 120.181C55.7722 120.181 55.2768 119.9 54.9165 119.335C54.5561 118.772 54.3756 117.993 54.3756 117C54.3756 116.092 54.576 115.347 54.9754 114.764C55.3749 114.182 55.888 113.89 56.5128 113.89C57.1041 113.89 57.5689 114.171 57.9044 114.73L57.9783 114.85V114.066H58.871V119.904C58.871 120.896 58.6912 121.62 58.3302 122.077C57.9698 122.534 57.4005 122.761 56.6208 122.761C55.9399 122.761 55.4403 122.6 55.1233 122.275C54.8056 121.951 54.6471 121.44 54.6471 120.748H55.5803C55.5803 121.148 55.6663 121.441 55.8362 121.627C56.0074 121.811 56.2754 121.904 56.6407 121.904ZM56.6514 114.737C56.2306 114.737 55.9037 114.935 55.6734 115.334C55.441 115.73 55.3244 116.289 55.3244 117.013C55.3244 117.795 55.4339 118.378 55.6528 118.76C55.8717 119.143 56.2036 119.335 56.6514 119.335C57.0721 119.335 57.3991 119.135 57.6301 118.732C57.8625 118.331 57.9783 117.764 57.9783 117.032C57.9783 116.3 57.8618 115.736 57.6301 115.334C57.3991 114.936 57.0721 114.737 56.6514 114.737ZM61.9393 120.446C61.2271 120.446 60.6678 120.163 60.262 119.6C59.8575 119.037 59.655 118.257 59.655 117.265C59.655 116.214 59.859 115.389 60.2648 114.789C60.6706 114.19 61.2279 113.89 61.9386 113.89C62.6259 113.89 63.1511 114.151 63.5129 114.671C63.8754 115.189 64.0552 115.945 64.0552 116.937L64.0452 117.354H60.5875C60.6109 118.06 60.7154 118.597 60.9023 118.964C61.1163 119.381 61.4546 119.589 61.9144 119.589C62.24 119.589 62.5072 119.472 62.7161 119.242C62.9244 119.01 63.0495 118.691 63.0886 118.281H64.0111C63.9422 118.983 63.7297 119.519 63.3778 119.89C63.026 120.26 62.5456 120.446 61.9393 120.446ZM63.1383 116.501C63.1085 115.931 63.0168 115.515 62.8619 115.251C62.6685 114.915 62.3366 114.747 61.8654 114.747C61.4574 114.747 61.1404 114.943 60.9137 115.333C60.7438 115.627 60.6372 116.017 60.5988 116.501H63.1383ZM68.9224 112.376H66.5883V111.366H72.2074V112.376H69.874V120.268H68.9224V112.376ZM74.8514 120.446C74.1392 120.446 73.5813 120.163 73.1747 119.6C72.771 119.037 72.5678 118.257 72.5678 117.265C72.5678 116.214 72.7717 115.389 73.1783 114.789C73.5834 114.19 74.1413 113.89 74.8514 113.89C75.5387 113.89 76.0646 114.151 76.4271 114.671C76.7896 115.19 76.9701 115.945 76.9701 116.937L76.9587 117.354H73.5024C73.5244 118.06 73.6303 118.597 73.8158 118.964C74.0298 119.381 74.3681 119.589 74.8293 119.589C75.1542 119.589 75.4221 119.472 75.6304 119.242C75.8386 119.01 75.9637 118.691 76.0021 118.281H76.9253C76.8557 118.983 76.6439 119.519 76.2921 119.89C75.9388 120.26 75.4584 120.446 74.8514 120.446ZM76.0511 116.501C76.022 115.931 75.9303 115.515 75.7746 115.251C75.582 114.915 75.2501 114.747 74.7782 114.747C74.3716 114.747 74.0532 114.943 73.8272 115.333C73.6566 115.627 73.5507 116.017 73.5123 116.501H76.0511ZM81.8387 118.161C81.7932 118.919 81.6013 119.487 81.2665 119.87C80.9304 120.254 80.4542 120.446 79.8365 120.446C79.0426 120.446 78.4556 120.174 78.071 119.632C77.6894 119.089 77.4946 118.256 77.4925 117.134C77.4925 116.119 77.7007 115.327 78.1172 114.752C78.5337 114.175 79.1059 113.89 79.8372 113.89C80.4314 113.89 80.9034 114.081 81.2502 114.465C81.5956 114.846 81.779 115.378 81.7961 116.054H80.8827C80.8728 115.646 80.7662 115.327 80.565 115.093C80.3625 114.863 80.0874 114.747 79.7434 114.747C79.2949 114.747 78.9673 114.939 78.7576 115.324C78.5494 115.71 78.4442 116.315 78.4442 117.14C78.4442 117.998 78.5472 118.622 78.7512 119.007C78.9552 119.394 79.2857 119.588 79.7434 119.588C80.1265 119.588 80.4165 119.475 80.6084 119.244C80.801 119.015 80.9126 118.654 80.9432 118.162L81.8387 118.161ZM82.5949 111.366H83.4876V114.831L83.5956 114.678C83.961 114.153 84.4549 113.89 85.0754 113.89C85.7115 113.89 86.1778 114.105 86.4749 114.536C86.7734 114.969 86.9219 115.643 86.9219 116.558V120.268H86.0292V116.591C86.0292 115.955 85.9347 115.494 85.7478 115.209C85.5616 114.922 85.2616 114.779 84.8508 114.779C84.3718 114.779 84.0278 114.936 83.811 115.248C83.5956 115.563 83.4876 116.067 83.4876 116.76V120.268H82.5949V111.366ZM87.8658 114.066H88.6945V114.924C88.7386 114.835 88.7919 114.753 88.8473 114.678C89.2141 114.153 89.7109 113.89 90.3356 113.89C90.9739 113.89 91.4451 114.108 91.7422 114.541C92.0421 114.973 92.1921 115.65 92.1921 116.571V120.268H91.2994V116.59C91.2994 115.954 91.2063 115.494 91.0187 115.208C90.831 114.921 90.5311 114.779 90.1203 114.779C89.6426 114.779 89.2972 114.936 89.0819 115.248C88.8651 115.563 88.7585 116.067 88.7585 116.76V120.268H87.8658V114.066ZM95.2774 120.446C94.5475 120.446 93.9739 120.153 93.5588 119.565C93.1423 118.979 92.9327 118.167 92.9327 117.134C92.9327 116.119 93.1423 115.327 93.5588 114.752C93.9739 114.175 94.5475 113.89 95.2774 113.89C96.0102 113.89 96.5852 114.175 96.9988 114.752C97.4139 115.327 97.6207 116.119 97.6207 117.134C97.6207 118.167 97.4139 118.979 96.9988 119.565C96.5852 120.153 96.0102 120.446 95.2774 120.446ZM95.2774 119.588C95.7174 119.588 96.0607 119.376 96.303 118.949C96.5475 118.521 96.6683 117.917 96.6683 117.14C96.6683 116.378 96.5475 115.791 96.303 115.373C96.06 114.956 95.7174 114.748 95.2774 114.748C94.836 114.748 94.4928 114.956 94.2504 115.373C94.0059 115.791 93.8851 116.378 93.8851 117.14C93.8851 117.917 94.0059 118.521 94.2504 118.949C94.4928 119.376 94.836 119.588 95.2774 119.588ZM98.4281 111.366H99.3208V120.268H98.4281V111.366ZM102.471 120.446C101.741 120.446 101.167 120.153 100.752 119.565C100.336 118.979 100.128 118.167 100.128 117.134C100.128 116.119 100.336 115.327 100.752 114.752C101.167 114.175 101.741 113.89 102.471 113.89C103.204 113.89 103.779 114.175 104.192 114.752C104.607 115.327 104.814 116.119 104.814 117.134C104.814 118.167 104.607 118.979 104.192 119.565C103.779 120.153 103.204 120.446 102.471 120.446ZM102.471 119.588C102.911 119.588 103.256 119.376 103.496 118.949C103.741 118.521 103.862 117.917 103.862 117.14C103.862 116.378 103.741 115.791 103.496 115.373C103.255 114.956 102.911 114.748 102.471 114.748C102.031 114.748 101.686 114.956 101.444 115.373C101.201 115.791 101.078 116.378 101.078 117.14C101.078 117.917 101.201 118.521 101.444 118.949C101.687 119.376 102.031 119.588 102.471 119.588ZM107.647 121.904C108.135 121.904 108.479 121.752 108.681 121.45C108.882 121.146 108.984 120.631 108.984 119.903V119.076L108.836 119.341C108.474 119.9 107.998 120.181 107.41 120.181C106.778 120.181 106.283 119.9 105.923 119.335C105.562 118.772 105.381 117.993 105.381 117C105.381 116.092 105.581 115.347 105.981 114.764C106.381 114.182 106.895 113.89 107.519 113.89C108.109 113.89 108.574 114.171 108.91 114.73L108.984 114.85V114.066H109.877V119.904C109.877 120.896 109.696 121.62 109.337 122.077C108.976 122.534 108.406 122.761 107.627 122.761C106.946 122.761 106.447 122.6 106.13 122.275C105.811 121.951 105.653 121.44 105.653 120.748H106.587C106.587 121.148 106.671 121.441 106.842 121.627C107.014 121.811 107.282 121.904 107.647 121.904ZM107.657 114.737C107.236 114.737 106.909 114.935 106.678 115.334C106.447 115.73 106.33 116.289 106.33 117.013C106.33 117.795 106.44 118.378 106.659 118.76C106.877 119.143 107.209 119.335 107.657 119.335C108.078 119.335 108.406 119.135 108.636 118.732C108.868 118.331 108.984 117.764 108.984 117.032C108.984 116.3 108.868 115.736 108.636 115.334C108.405 114.936 108.077 114.737 107.657 114.737ZM112.691 122.558H111.792L112.534 120.296V120.292L110.483 114.066H111.447L113.008 118.981L114.487 114.066H115.432L112.691 122.558ZM116.073 121.77L116.711 118.765H117.736L116.684 121.77H116.073ZM121.205 111.366H122.156V120.268H121.205V111.366ZM123.292 114.066H124.121V114.924C124.166 114.835 124.218 114.753 124.274 114.678C124.642 114.153 125.139 113.89 125.763 113.89C126.402 113.89 126.871 114.108 127.17 114.541C127.47 114.973 127.62 115.65 127.62 116.571V120.268H126.727V116.59C126.727 115.954 126.633 115.494 126.446 115.208C126.259 114.921 125.959 114.779 125.549 114.779C125.07 114.779 124.724 114.936 124.509 115.248C124.294 115.563 124.185 116.067 124.185 116.76V120.268H123.292V114.066ZM132.715 118.161C132.67 118.919 132.478 119.487 132.143 119.87C131.807 120.254 131.331 120.446 130.713 120.446C129.919 120.446 129.332 120.174 128.947 119.632C128.566 119.089 128.371 118.256 128.369 117.134C128.369 116.119 128.577 115.327 128.994 114.752C129.41 114.175 129.982 113.89 130.714 113.89C131.308 113.89 131.78 114.081 132.127 114.465C132.473 114.846 132.655 115.378 132.672 116.054H131.759C131.749 115.646 131.643 115.327 131.441 115.093C131.239 114.863 130.965 114.747 130.62 114.747C130.171 114.747 129.844 114.939 129.634 115.324C129.426 115.71 129.321 116.315 129.321 117.14C129.321 117.998 129.424 118.622 129.628 119.007C129.832 119.394 130.162 119.588 130.62 119.588C131.003 119.588 131.293 119.475 131.485 119.244C131.677 119.015 131.789 118.654 131.82 118.162L132.715 118.161ZM133.91 118.768H134.986V120.268H133.91V118.768Z" fill="black"/>
<path id="Vector_2" fill-rule="evenodd" clip-rule="evenodd" d="M68.1719 14.2397C68.7547 14.2397 69.3353 14.2547 69.9125 14.2781V29.4788C68.7525 29.4345 67.5912 29.4345 66.4312 29.4788V14.2781C67.0111 14.2536 67.5914 14.2408 68.1719 14.2397ZM71.5607 14.3734C72.7348 14.4658 73.8955 14.6065 75.0419 14.7913V29.9649C73.8869 29.7894 72.7257 29.6583 71.5607 29.5719V14.3734ZM76.6894 15.0905C77.8678 15.3286 79.0284 15.615 80.1706 15.9484V31.0524C79.0213 30.7382 77.86 30.4696 76.6894 30.2471V15.0905ZM81.8203 16.4644C82.9992 16.861 84.1602 17.309 85.3001 17.807V32.793C84.1576 32.3276 82.9967 31.9089 81.8203 31.5378V16.4644ZM86.9483 18.5667C88.1375 19.1454 89.2992 19.7792 90.4295 20.4659V35.2678C89.2948 34.6303 88.1334 34.0417 86.9483 33.5037V18.5667ZM92.0791 21.5199C93.2815 22.327 94.4428 23.1935 95.5589 24.1162V38.6232C94.4358 37.7768 93.2747 36.982 92.0791 36.2415V21.5199ZM97.2086 25.5534C98.436 26.677 99.5978 27.8701 100.688 29.127V43.1251C99.5836 42.0006 98.4222 40.9334 97.2086 39.9274V25.5534ZM102.337 31.1519C103.625 32.8302 104.789 34.6009 105.817 36.4498V49.3604C104.75 47.8017 103.588 46.3101 102.337 44.8941V31.1519ZM107.467 39.732C109.279 43.765 110.453 48.0554 110.947 52.4493V59.2454C110.005 56.7131 108.841 54.2694 107.467 51.9432V39.732ZM64.7823 29.5712C63.6096 29.6586 62.4489 29.7894 61.3018 29.9642V14.792C62.4558 14.6053 63.6169 14.4656 64.7823 14.3734V29.5712ZM59.6536 30.2471C58.4833 30.4698 57.3223 30.7385 56.1731 31.0524V15.9484C57.3206 15.6134 58.4818 15.3271 59.6536 15.0905V30.2471ZM54.5242 31.5378C53.3473 31.9085 52.1862 32.3273 51.0437 32.793V17.807C52.1837 17.309 53.345 16.861 54.5242 16.4644V31.5378ZM49.3947 33.503C48.21 34.0413 47.0488 34.6298 45.9142 35.2671V20.4659C47.0445 19.7796 48.2059 19.1459 49.3947 18.5667V33.503ZM44.2653 36.2422C43.0691 36.9825 41.9077 37.7775 40.7848 38.6246V24.1169C41.9006 23.1936 43.0623 22.327 44.2653 21.5206V36.2422ZM39.1359 39.9281C37.9217 40.9334 36.76 42.0005 35.6554 43.1251V29.1277C36.7462 27.8708 37.9082 26.6777 39.1359 25.5541V39.9281ZM34.0064 44.8941C32.7555 46.3096 31.5931 47.801 30.5259 49.3597V36.4505C31.5552 34.6019 32.7184 32.8312 34.0064 31.1526V44.8941ZM28.877 51.944C27.502 54.2697 26.3372 56.7134 25.3965 59.2461V52.45C25.8904 48.0556 27.0646 43.7648 28.877 39.7313V51.944Z" fill="#808183"/>
<path id="Vector_3" fill-rule="evenodd" clip-rule="evenodd" d="M68.1719 32.0097C68.7547 32.0097 69.3353 32.0246 69.9125 32.0481V108.768H66.4312V32.0474C67.0111 32.023 67.5915 32.0105 68.1719 32.0097ZM71.5607 32.1426C72.7348 32.235 73.8955 32.3757 75.0419 32.5612V108.767H71.5607V32.1426ZM76.6894 32.8598C77.8613 33.0968 79.0227 33.383 80.1706 33.7176V108.767H76.6894V32.8598ZM81.8203 34.2336C82.9991 34.6306 84.1601 35.0785 85.3001 35.5762V108.767H81.8203V34.2336ZM86.9483 36.336C88.1375 36.9149 89.2992 37.5489 90.4295 38.2358V108.768H86.9483V36.336ZM92.0791 39.2898C93.2815 40.0969 94.4428 40.9635 95.5589 41.8862V108.228C95.3393 108.409 95.119 108.589 94.8965 108.767H92.0784L92.0791 39.2898ZM97.2086 43.3233C98.436 44.4469 99.5978 45.6401 100.688 46.8969V103.216C99.5976 104.474 98.4358 105.668 97.2086 106.793V43.3233ZM102.337 48.9218C103.625 50.6002 104.789 52.3709 105.817 54.2197V95.8991C104.788 97.748 103.625 99.519 102.337 101.198V48.9218ZM107.467 57.5019C109.279 61.535 110.453 65.8254 110.947 70.2192V79.9209C110.45 84.3065 109.276 88.5885 107.467 92.614V57.5019ZM64.7823 108.767H61.3018V32.5612C62.4558 32.3745 63.6169 32.2349 64.7823 32.1426V108.767ZM59.6536 108.767H56.1731V33.7176C57.3207 33.3827 58.4819 33.0963 59.6536 32.859V108.767ZM54.5242 108.767H51.0437V35.5762C52.1837 35.0782 53.345 34.6303 54.5242 34.2336V108.767ZM49.3947 108.767H45.9142V38.2351C47.0448 37.5491 48.2062 36.9152 49.3947 36.3353V108.767ZM44.2653 108.767H41.4472C41.224 108.589 41.0037 108.409 40.7848 108.228V41.8869C41.9011 40.964 43.0627 40.0972 44.2653 39.2898V108.767ZM39.1359 106.793C37.9084 105.668 36.7463 104.474 35.6554 103.216V46.8969C36.7463 45.6403 37.9084 44.4471 39.1359 43.3233V106.793ZM34.0064 101.198C32.7183 99.5189 31.5551 97.748 30.5259 95.8991V54.2197C31.5552 52.3711 32.7184 50.6004 34.0064 48.9218V101.198ZM28.877 92.6148C27.067 88.5883 25.8929 84.3053 25.3965 79.9188V70.2207C25.8904 65.8263 27.0646 61.5355 28.877 57.5019V92.6148Z" fill="#E6E6E7"/>
<path id="Vector_4" fill-rule="evenodd" clip-rule="evenodd" d="M121.519 38.2863L119.582 52.5261H107.27L102.187 91.0625H83.5401L84.2786 85.4669C83.48 86.2288 82.6202 86.9239 81.7078 87.5451C77.2849 90.5586 72.1505 90.9574 64.8398 90.9574H44.4158L49.4721 77.4404H62.7665C65.8845 77.4404 67.7801 77.2237 69.1582 76.81C70.5463 76.3921 71.3516 75.6998 71.579 74.7418C71.7084 74.1987 71.6942 73.7197 71.525 73.3039C71.3679 72.8874 71.0794 72.5974 70.6643 72.4588C69.8036 72.1063 68.2293 71.7915 65.9499 71.4887C56.6826 70.3103 50.6903 66.3813 53.2156 55.7592C56.5511 41.7284 69.1127 38.287 81.2288 38.287L121.519 38.2863ZM87.403 61.7842L88.6248 52.5261L88.2566 52.1003H82.6112C79.1477 52.1003 76.6644 52.3278 75.1804 52.7691C73.6814 53.2105 72.8178 53.9419 72.5719 54.976C72.4582 55.455 72.4874 55.8715 72.6679 56.2376C72.837 56.6036 73.1064 56.868 73.4689 57.0073C74.3907 57.4366 76.051 57.8104 78.4263 58.1431C81.6929 58.5986 84.9552 59.7806 87.403 61.7842ZM51.5453 52.1003H50.551C47.0875 52.1003 44.6056 52.3299 43.1202 52.7691C41.6219 53.2119 40.7577 53.9419 40.5124 54.976C40.3987 55.455 40.4321 55.8687 40.6084 56.2376C40.7724 56.5837 41.0576 56.8575 41.4101 57.0073C42.3419 57.4195 43.9915 57.8104 46.3675 58.1431C47.6083 58.3163 48.8341 58.5838 50.0343 58.9434C49.7173 63.281 50.9184 66.5405 53.2475 68.9854C54.8524 70.6692 56.9597 71.8824 59.4395 72.736C59.2982 73.4255 59.1399 74.1113 58.9648 74.7929H47.6462L47.0001 76.52L41.9439 90.0369L41.7435 90.5743C39.3163 90.8856 36.6098 90.9574 33.513 90.9574H13.0898L18.1461 77.4404H31.4412C34.5593 77.4404 36.4548 77.2237 37.8322 76.81C39.2217 76.3921 40.0256 75.6998 40.2537 74.7418C40.3831 74.1987 40.3689 73.7197 40.199 73.3039C40.0419 72.8874 39.7541 72.5974 39.339 72.4588C38.4776 72.1063 36.904 71.7915 34.6239 71.4887C25.3566 70.3103 19.3643 66.3813 21.8896 55.7592C25.2251 41.727 37.7867 38.2863 49.9021 38.2863H65.2044C64.358 38.6214 63.5285 38.9976 62.7189 39.4136C57.7721 41.963 53.7536 45.978 51.5453 52.1003Z" fill="black"/>
</g>
</g>
<defs>
<clipPath id="clip0_177_1256">
<rect width="137" height="137" fill="white"/>
</clipPath>
</defs>
</svg>
