<svg width="137" height="137" viewBox="0 0 137 137" fill="none" xmlns="http://www.w3.org/2000/svg">
<g id="tefal-2" clip-path="url(#clip0_177_1243)">
<g id="Group">
<path id="Vector" fill-rule="evenodd" clip-rule="evenodd" d="M2.01367 58.9199H29.8272V63.6719H21.4859V78.0801H9.94983V63.6719H2.01367V58.9199ZM30.6943 58.9199H52.9007V63.6719H42.1628V66.2853H52.4402V70.5647H42.1628V73.5839H54.6343V78.0801H30.6943V58.9199ZM56.0557 58.9199H80.673V63.4423H67.6337V66.2853H78.1812V70.5647H67.6337V78.0801H56.0557V58.9199ZM110.367 58.9199H121.944V73.5839H134.985V78.0801H110.367V58.9199ZM98.3165 58.9199H86.1578L74.228 78.0801H79.9694L82.6638 73.8825H94.2411L96.7998 78.0801H109.975L98.3165 58.9199ZM84.4499 70.3749L88.5936 63.6726L92.5609 70.3749H84.4499Z" fill="#232323"/>
</g>
</g>
<defs>
<clipPath id="clip0_177_1243">
<rect width="137" height="137" fill="white"/>
</clipPath>
</defs>
</svg>
